# Blender v2.91.2 OBJ File: 'BaseHexagonTile.blend'
# www.blender.org
mtllib TestHexagonTile.mtl.mtl
o Circle
v 0.000000 0.000000 -1.000000
v -0.866025 0.000000 -0.500000
v -0.866025 0.000000 0.500000
v 0.000000 0.000000 1.000000
v 0.866025 0.000000 0.500000
v 0.866025 0.000000 -0.500000
v 0.000000 0.000000 -1.000000
v -0.866025 0.000000 -0.500000
v -0.866025 0.000000 0.500000
v 0.000000 0.000000 1.000000
v 0.866025 0.000000 0.500000
v 0.866025 0.000000 -0.500000
v 0.000000 -0.305275 -1.000000
v -0.866025 -0.305275 -0.500000
v -0.866025 -0.305275 0.500000
v 0.000000 -0.305275 1.000000
v 0.866025 -0.305275 0.500000
v 0.866025 -0.305275 -0.500000
vt 0.000000 0.000000
vt 0.000000 0.000000
vt 0.000000 0.000000
vt 0.000000 0.000000
vt 0.000000 0.000000
vt 0.000000 0.000000
vt 0.000000 0.000000
vt 0.000000 0.000000
vt 0.000000 0.000000
vt 0.000000 0.000000
vt 0.000000 0.000000
vt 0.000000 0.000000
vt 0.000000 0.000000
vt 0.000000 0.000000
vt 0.000000 0.000000
vt 0.000000 0.000000
vt 0.000000 0.000000
vt 0.000000 0.000000
vn 0.0000 0.0000 1.0000
vn 1.0000 0.0000 0.0000
vn -0.5000 0.0000 0.8660
vn -0.5000 0.0000 -0.8660
vn 0.5000 0.0000 -0.8660
vn 0.5000 0.0000 0.8660
vn -1.0000 0.0000 0.0000
vn 0.0000 1.0000 0.0000
usemtl None
s off
f 1/1/1 6/2/1 12/3/1 7/4/1
f 5/5/1 4/6/1 10/7/1 11/8/1
f 3/9/1 2/10/1 8/11/1 9/12/1
f 6/2/1 5/5/1 11/8/1 12/3/1
f 4/6/1 3/9/1 9/12/1 10/7/1
f 2/10/1 1/1/1 7/4/1 8/11/1
f 12/3/2 11/8/2 17/13/2 18/14/2
f 10/7/3 9/12/3 15/15/3 16/16/3
f 8/11/4 7/4/4 13/17/4 14/18/4
f 7/4/5 12/3/5 18/14/5 13/17/5
f 11/8/6 10/7/6 16/16/6 17/13/6
f 9/12/7 8/11/7 14/18/7 15/15/7
f 8/11/8 9/12/8 10/7/8 11/8/8 12/3/8 7/4/8
